<svg xmlns="http://www.w3.org/2000/svg" width="24" height="24" viewBox="0 0 24 24">
  <g id="Group_5552" data-name="Group 5552" transform="translate(-72 -504)">
    <g id="icons8-google-calendar" transform="translate(72 504)">
      <rect id="Rectangle_55813" data-name="Rectangle 55813" width="14.667" height="14.667" transform="translate(4.667 4.667)" fill="#fff"/>
      <path id="Path_101051" data-name="Path 101051" d="M25.68,20.152l.672.96,1.056-.768v5.568H28.56v-7.3H27.6Z" transform="translate(-12.56 -10.205)" fill="#1e88e5"/>
      <path id="Path_101052" data-name="Path 101052" d="M20.962,21.939a2.032,2.032,0,0,0,.675-1.5,2.2,2.2,0,0,0-2.278-2.112,2.237,2.237,0,0,0-2.22,1.635l1.1.281a1.116,1.116,0,0,1,1.115-.764.974.974,0,1,1,0,1.92h-.665v1.152h.665a1.245,1.245,0,0,1,1.329,1.093A1.2,1.2,0,0,1,19.4,24.739a1.242,1.242,0,0,1-1.276-.945L17,23.977a2.388,2.388,0,0,0,2.4,1.913,2.344,2.344,0,0,0,2.427-2.245A2.165,2.165,0,0,0,20.962,21.939Z" transform="translate(-9.667 -10.109)" fill="#1e88e5"/>
      <path id="Path_101053" data-name="Path 101053" d="M27,39.333H13.667L13,36.667,13.667,34H27l.667,2.667Z" transform="translate(-8.333 -15.333)" fill="#fbc02d"/>
      <path id="Path_101054" data-name="Path 101054" d="M36.667,27.667,39.333,27V13.667L36.667,13,34,13.667V27Z" transform="translate(-15.333 -8.333)" fill="#4caf50"/>
      <path id="Path_101055" data-name="Path 101055" d="M24.667,11.333l.667-2.667L24.667,6H8A2,2,0,0,0,6,8V24.667l2.667.667,2.667-.667V11.333Z" transform="translate(-6 -6)" fill="#1e88e5"/>
      <path id="Path_101056" data-name="Path 101056" d="M34,34v5.333L39.333,34Z" transform="translate(-15.333 -15.333)" fill="#e53935"/>
      <path id="Path_101057" data-name="Path 101057" d="M37.333,6H34v5.333h5.333V8A2,2,0,0,0,37.333,6Z" transform="translate(-15.333 -6)" fill="#1565c0"/>
      <path id="Path_101058" data-name="Path 101058" d="M8,39.333h3.333V34H6v3.333A2,2,0,0,0,8,39.333Z" transform="translate(-6 -15.333)" fill="#1565c0"/>
    </g>
  </g>
</svg>
