<svg xmlns="http://www.w3.org/2000/svg" width="73" height="73" viewBox="0 0 73 73">
  <g id="Group_5623" data-name="Group 5623" transform="translate(-14.5 -14.5)">
    <path id="Path_943" data-name="Path 943" d="M53.521,25A28.521,28.521,0,1,0,82.042,53.521,28.521,28.521,0,0,0,53.521,25Z" transform="translate(-1.947 -2.192)" fill="#d7eae7"/>
    <path id="Path_944" data-name="Path 944" d="M51,16A35,35,0,1,0,86,51,35,35,0,0,0,51,16Z" transform="translate(0 0)" fill="none" stroke="#444b54" stroke-width="3"/>
    <path id="icons8-supplement-bottle" d="M18.476,2A2.684,2.684,0,0,0,15.81,4.667V8.2A7.253,7.253,0,0,0,12,14.571V29.81A4.208,4.208,0,0,0,16.19,34h9.9a4.208,4.208,0,0,0,4.19-4.19V14.571A7.253,7.253,0,0,0,26.476,8.2V4.667A2.684,2.684,0,0,0,23.81,2Zm0,2.286H23.81a.364.364,0,0,1,.381.381V7.433a7.2,7.2,0,0,0-1.143-.1h-3.81a7.2,7.2,0,0,0-1.143.1V4.667A.364.364,0,0,1,18.476,4.286Zm.762,5.333h3.81A4.936,4.936,0,0,1,28,14.571V29.81a1.888,1.888,0,0,1-1.9,1.9h-9.9a1.888,1.888,0,0,1-1.9-1.9V14.571A4.936,4.936,0,0,1,19.238,9.619Zm1.9,3.048a4.589,4.589,0,0,0-4.571,4.571V24.1a4.571,4.571,0,1,0,9.143,0V17.238A4.589,4.589,0,0,0,21.143,12.667Zm0,2.286a2.269,2.269,0,0,1,2.286,2.286v2.286H18.857V17.238A2.269,2.269,0,0,1,21.143,14.952ZM18.857,21.81h4.571V24.1a2.286,2.286,0,0,1-4.571,0Z" transform="translate(29.857 33)" fill="#3f464e"/>
  </g>
</svg>
