<svg xmlns="http://www.w3.org/2000/svg" width="15.497" height="20" viewBox="0 0 15.497 20">
  <path id="icons8-phone" d="M14.018,4.006a2.8,2.8,0,0,0-1,.107l-1.183.351A3.769,3.769,0,0,0,9.258,7.1c-.74,2.809.107,6.133,2.31,9.875s4.708,6.112,7.54,6.887a3.838,3.838,0,0,0,3.617-.882l.9-.835a2.726,2.726,0,0,0,.344-3.6l-1.3-1.766a2.8,2.8,0,0,0-3.056-1.011l-2.035.609c-.085.025-.29-.091-.468-.245h0A7.033,7.033,0,0,1,15.883,14.5h0a7.265,7.265,0,0,1-.8-1.745.94.94,0,0,1-.053-.482.237.237,0,0,1,.078-.148h0l1.517-1.388A2.719,2.719,0,0,0,17.264,7.6l-.915-2h0A2.782,2.782,0,0,0,14.018,4.006Zm-.108,1.5a1.288,1.288,0,0,1,1.075.731l.916,2a1.2,1.2,0,0,1-.29,1.4l-1.517,1.387a1.741,1.741,0,0,0-.558,1.088h0a2.979,2.979,0,0,0,.092,1.029,8.575,8.575,0,0,0,.963,2.128h0a8.03,8.03,0,0,0,1.534,2h0A1.978,1.978,0,0,0,18,17.818h0l2.044-.612a1.3,1.3,0,0,1,1.417.464l1.3,1.766a1.206,1.206,0,0,1-.156,1.611l-.9.836a2.362,2.362,0,0,1-2.2.533c-2.289-.627-4.555-2.655-6.643-6.2s-2.745-6.487-2.153-8.732A2.287,2.287,0,0,1,12.263,5.9l1.182-.351A1.294,1.294,0,0,1,13.909,5.5Z" transform="translate(-8.996 -3.999)"/>
</svg>
